<svg width="20" height="20" viewBox="0 0 20 20" fill="none" xmlns="http://www.w3.org/2000/svg">
<g clip-path="url(#clip0_462_3600)">
<path d="M17.4999 5H12.4999C12.2789 5 12.0669 5.0878 11.9106 5.24408C11.7543 5.40036 11.6665 5.61232 11.6665 5.83333C11.6665 6.05435 11.7543 6.26631 11.9106 6.42259C12.0669 6.57887 12.2789 6.66667 12.4999 6.66667H17.1549L11.6865 12.135C11.4601 12.3607 11.1534 12.4874 10.8336 12.4874C10.5139 12.4874 10.2072 12.3607 9.98071 12.135L7.86488 10.0192C7.32574 9.48123 6.59523 9.17912 5.83362 9.17912C5.07202 9.17912 4.34151 9.48123 3.80237 10.0192L0.244041 13.5775C0.0877841 13.7338 0 13.9457 0 14.1667C0 14.3876 0.0877841 14.5996 0.244041 14.7558C0.400298 14.9121 0.612227 14.9999 0.833208 14.9999C1.05419 14.9999 1.26612 14.9121 1.42237 14.7558L4.98071 11.1975C5.43654 10.7417 6.23071 10.7417 6.68654 11.1975L8.80237 13.3133C9.34151 13.8513 10.072 14.1534 10.8336 14.1534C11.5952 14.1534 12.3257 13.8513 12.8649 13.3133L18.334 7.845V12.5C18.334 12.721 18.4218 12.933 18.5781 13.0893C18.7344 13.2455 18.9464 13.3333 19.1674 13.3333C19.3884 13.3333 19.6004 13.2455 19.7566 13.0893C19.9129 12.933 20.0007 12.721 20.0007 12.5V7.5C20.0007 6.12167 18.8782 5 17.4999 5Z" fill="#064E3B"/>
</g>
<defs>
<clipPath id="clip0_462_3600">
<rect width="20" height="20" fill="white"/>
</clipPath>
</defs>
</svg>
