<svg width="20" height="20" viewBox="0 0 20 20" fill="none" xmlns="http://www.w3.org/2000/svg">
<path d="M19.1665 6.66678C18.9455 6.66678 18.7336 6.75458 18.5773 6.91086C18.421 7.06714 18.3332 7.2791 18.3332 7.50012V12.1551L12.864 6.68679C12.3249 6.14885 11.5944 5.84674 10.8328 5.84674C10.0712 5.84674 9.34068 6.14885 8.80154 6.68679L6.65404 8.83428C6.43598 9.05163 6.14066 9.17367 5.83279 9.17367C5.52492 9.17367 5.2296 9.05163 5.01154 8.83428L1.42237 5.24429C1.26612 5.08803 1.05419 5.00024 0.833207 5.00024C0.612227 5.00024 0.400298 5.08803 0.244041 5.24429C0.0877841 5.40054 0 5.61247 0 5.83345C0 6.05443 0.0877841 6.26636 0.244041 6.42262L3.83404 10.0126C4.36507 10.5416 5.08408 10.8386 5.83362 10.8386C6.58317 10.8386 7.30217 10.5416 7.83321 10.0126L9.98071 7.86512C10.2072 7.63943 10.5139 7.51271 10.8336 7.51271C11.1534 7.51271 11.4601 7.63943 11.6865 7.86512L17.1549 13.3335H12.4999C12.2789 13.3335 12.0669 13.4212 11.9106 13.5775C11.7543 13.7338 11.6665 13.9458 11.6665 14.1668C11.6665 14.3878 11.7543 14.5998 11.9106 14.756C12.0669 14.9123 12.2789 15.0001 12.4999 15.0001H17.4999C18.8782 15.0001 19.9999 13.8785 19.9999 12.5001V7.50012C19.9999 7.2791 19.9121 7.06714 19.7558 6.91086C19.5995 6.75458 19.3876 6.66678 19.1665 6.66678Z" fill="#D32F2F"/>
</svg>
