<svg width="24" height="24" viewBox="0 0 24 24" fill="none" xmlns="http://www.w3.org/2000/svg">
<g filter="url(#filter0_d_462_1585)">
<path d="M19 11H9L12.29 7.71C12.3837 7.61704 12.4581 7.50644 12.5089 7.38458C12.5597 7.26272 12.5858 7.13201 12.5858 7C12.5858 6.86799 12.5597 6.73728 12.5089 6.61542C12.4581 6.49356 12.3837 6.38296 12.29 6.29C12.1026 6.10375 11.8492 5.99921 11.585 5.99921C11.3208 5.99921 11.0674 6.10375 10.88 6.29L6.59 10.59C6.21441 10.9633 6.00223 11.4704 6 12C6.00487 12.5261 6.21684 13.0291 6.59 13.4L10.88 17.7C10.9732 17.7926 11.0838 17.8659 11.2054 17.9157C11.3269 17.9656 11.4571 17.991 11.5885 17.9906C11.7199 17.9901 11.8499 17.9638 11.9712 17.913C12.0924 17.8623 12.2024 17.7882 12.295 17.695C12.3876 17.6018 12.4609 17.4912 12.5107 17.3696C12.5606 17.2481 12.586 17.1179 12.5856 16.9865C12.5851 16.8551 12.5588 16.7251 12.508 16.6038C12.4573 16.4826 12.3832 16.3726 12.29 16.28L9 13H19C19.2652 13 19.5196 12.8946 19.7071 12.7071C19.8946 12.5196 20 12.2652 20 12C20 11.7348 19.8946 11.4804 19.7071 11.2929C19.5196 11.1054 19.2652 11 19 11Z" fill="url(#paint0_linear_462_1585)"/>
<path d="M11.585 5.74921C11.915 5.74921 12.2316 5.87987 12.4658 6.11249C12.583 6.22869 12.6758 6.36739 12.7393 6.51971C12.8027 6.67197 12.8359 6.83525 12.8359 7.00018C12.8359 7.16514 12.8027 7.32839 12.7393 7.48065C12.6759 7.63265 12.5826 7.76988 12.4658 7.88593L9.60352 10.7502H19C19.3315 10.7502 19.6494 10.882 19.8838 11.1164C20.1182 11.3508 20.25 11.6687 20.25 12.0002C20.25 12.3316 20.1182 12.6496 19.8838 12.884C19.6494 13.1183 19.3315 13.2502 19 13.2502H9.60449L12.4668 16.1027H12.4658C12.5822 16.2183 12.6749 16.3557 12.7383 16.507C12.8017 16.6585 12.8354 16.8213 12.8359 16.9855C12.8365 17.1496 12.8044 17.3122 12.7422 17.4641C12.6799 17.616 12.5883 17.7548 12.4727 17.8713C12.3569 17.9878 12.2189 18.0804 12.0674 18.1437C11.9161 18.207 11.7538 18.2398 11.5898 18.2404C11.4256 18.241 11.2623 18.209 11.1104 18.1467C10.9585 18.0844 10.8206 17.9928 10.7041 17.8771L10.7031 17.8762L6.41309 13.5764V13.5754C5.9941 13.1582 5.75547 12.5934 5.75 12.0021V11.9992L5.76172 11.7766C5.81494 11.2626 6.04444 10.7797 6.41406 10.4123L10.7031 6.11346L10.7041 6.11249C10.9383 5.87986 11.2549 5.74922 11.585 5.74921Z" stroke="#064E3B" stroke-width="0.5" stroke-linejoin="round"/>
</g>
<defs>
<filter id="filter0_d_462_1585" x="5.5" y="5.49921" width="15.5" height="13.9913" filterUnits="userSpaceOnUse" color-interpolation-filters="sRGB">
<feFlood flood-opacity="0" result="BackgroundImageFix"/>
<feColorMatrix in="SourceAlpha" type="matrix" values="0 0 0 0 0 0 0 0 0 0 0 0 0 0 0 0 0 0 127 0" result="hardAlpha"/>
<feOffset dx="0.5" dy="1"/>
<feComposite in2="hardAlpha" operator="out"/>
<feColorMatrix type="matrix" values="0 0 0 0 0.0235294 0 0 0 0 0.305882 0 0 0 0 0.231373 0 0 0 1 0"/>
<feBlend mode="normal" in2="BackgroundImageFix" result="effect1_dropShadow_462_1585"/>
<feBlend mode="normal" in="SourceGraphic" in2="effect1_dropShadow_462_1585" result="shape"/>
</filter>
<linearGradient id="paint0_linear_462_1585" x1="13" y1="5.99921" x2="13" y2="17.9906" gradientUnits="userSpaceOnUse">
<stop stop-color="#FAF3BC"/>
<stop offset="1" stop-color="#FCC524"/>
</linearGradient>
</defs>
</svg>
