<svg width="16" height="14" viewBox="0 0 16 14" fill="none" xmlns="http://www.w3.org/2000/svg">
<g filter="url(#filter0_d_880_456)">
<path d="M13.5 5.50079H3.5L6.79 2.21079C6.88373 2.11783 6.95812 2.00723 7.00889 1.88537C7.05966 1.76351 7.0858 1.6328 7.0858 1.50079C7.0858 1.36878 7.05966 1.23807 7.00889 1.11622C6.95812 0.994356 6.88373 0.883755 6.79 0.790792C6.60264 0.604542 6.34919 0.5 6.085 0.5C5.82082 0.5 5.56736 0.604542 5.38 0.790792L1.09 5.09079C0.714412 5.46414 0.502233 5.97122 0.5 6.50079C0.504867 7.0269 0.716844 7.52989 1.09 7.90079L5.38 12.2008C5.47324 12.2934 5.5838 12.3667 5.70537 12.4165C5.82694 12.4664 5.95714 12.4918 6.08854 12.4913C6.21993 12.4909 6.34995 12.4645 6.47116 12.4138C6.59238 12.3631 6.70242 12.289 6.795 12.1958C6.88758 12.1026 6.96089 11.992 7.01075 11.8704C7.0606 11.7489 7.08602 11.6187 7.08556 11.4873C7.08509 11.3559 7.05875 11.2258 7.00804 11.1046C6.95733 10.9834 6.88324 10.8734 6.79 10.7808L3.5 7.50079H13.5C13.7652 7.50079 14.0196 7.39544 14.2071 7.2079C14.3946 7.02036 14.5 6.76601 14.5 6.50079C14.5 6.23558 14.3946 5.98122 14.2071 5.79369C14.0196 5.60615 13.7652 5.50079 13.5 5.50079Z" fill="url(#paint0_linear_880_456)"/>
<path d="M6.08496 0.25C6.41504 0.25 6.73165 0.380667 6.96582 0.613281C7.08298 0.729485 7.1758 0.868184 7.23926 1.02051C7.30266 1.17277 7.33594 1.33604 7.33594 1.50098C7.33591 1.66593 7.30269 1.82918 7.23926 1.98145C7.17592 2.13344 7.08264 2.27068 6.96582 2.38672L4.10352 5.25098H13.5C13.8315 5.25098 14.1494 5.38277 14.3838 5.61719C14.6182 5.8516 14.75 6.1695 14.75 6.50098C14.75 6.83243 14.6182 7.15039 14.3838 7.38477C14.1494 7.61913 13.8315 7.75098 13.5 7.75098H4.10449L6.9668 10.6035H6.96582C7.08225 10.7191 7.1749 10.8565 7.23828 11.0078C7.30166 11.1593 7.33535 11.3221 7.33594 11.4863C7.33652 11.6504 7.30438 11.813 7.24219 11.9648C7.17989 12.1168 7.08834 12.2555 6.97266 12.3721C6.85694 12.4886 6.71889 12.5811 6.56738 12.6445C6.41608 12.7078 6.25383 12.7406 6.08984 12.7412C5.92562 12.7418 5.7623 12.7098 5.61035 12.6475C5.45851 12.5852 5.32057 12.4936 5.2041 12.3779L5.20312 12.377L0.913086 8.07715V8.07617C0.494097 7.65904 0.255469 7.09418 0.25 6.50293V6.5L0.261719 6.27734C0.314942 5.76343 0.544436 5.28051 0.914062 4.91309L5.20312 0.614258L5.2041 0.613281C5.43827 0.380652 5.75488 0.25001 6.08496 0.25Z" stroke="#064E3B" stroke-width="0.5" stroke-linejoin="round"/>
</g>
<defs>
<filter id="filter0_d_880_456" x="0" y="0" width="15.5" height="13.9913" filterUnits="userSpaceOnUse" color-interpolation-filters="sRGB">
<feFlood flood-opacity="0" result="BackgroundImageFix"/>
<feColorMatrix in="SourceAlpha" type="matrix" values="0 0 0 0 0 0 0 0 0 0 0 0 0 0 0 0 0 0 127 0" result="hardAlpha"/>
<feOffset dx="0.5" dy="1"/>
<feComposite in2="hardAlpha" operator="out"/>
<feColorMatrix type="matrix" values="0 0 0 0 0.0235294 0 0 0 0 0.305882 0 0 0 0 0.231373 0 0 0 1 0"/>
<feBlend mode="normal" in2="BackgroundImageFix" result="effect1_dropShadow_880_456"/>
<feBlend mode="normal" in="SourceGraphic" in2="effect1_dropShadow_880_456" result="shape"/>
</filter>
<linearGradient id="paint0_linear_880_456" x1="7.5" y1="0.5" x2="7.5" y2="12.4914" gradientUnits="userSpaceOnUse">
<stop stop-color="#FAF3BC"/>
<stop offset="1" stop-color="#FCC524"/>
</linearGradient>
</defs>
</svg>
