<svg width="21" height="22" viewBox="0 0 21 22" fill="none" xmlns="http://www.w3.org/2000/svg">
<mask id="path-1-outside-1_462_1676" maskUnits="userSpaceOnUse" x="-0.5" y="0" width="22" height="22" fill="black">
<rect fill="white" x="-0.5" width="22" height="22"/>
<path d="M0.5 4C0.5 1.79086 2.29086 0 4.5 0H16.5C18.7091 0 20.5 1.79086 20.5 4V16C20.5 18.2091 18.7091 20 16.5 20H4.5C2.29086 20 0.5 18.2091 0.5 16V4Z"/>
</mask>
<path d="M0.5 4C0.5 1.79086 2.29086 0 4.5 0H16.5C18.7091 0 20.5 1.79086 20.5 4V16C20.5 18.2091 18.7091 20 16.5 20H4.5C2.29086 20 0.5 18.2091 0.5 16V4Z" fill="url(#paint0_linear_462_1676)"/>
<path d="M0.5 0H20.5H0.5M21 17C21 19.4853 18.9853 21.5 16.5 21.5H4.5C2.01472 21.5 0 19.4853 0 17L1 16C1 17.3807 2.567 18.5 4.5 18.5H16.5C18.433 18.5 20 17.3807 20 16L21 17ZM4.5 21.5C2.01472 21.5 0 19.4853 0 17V4.5C0 2.01472 2.01472 0 4.5 0C2.567 0 1 1.79086 1 4V16C1 17.3807 2.567 18.5 4.5 18.5V21.5ZM16.5 0C18.9853 0 21 2.01472 21 4.5V17C21 19.4853 18.9853 21.5 16.5 21.5V18.5C18.433 18.5 20 17.3807 20 16V4C20 1.79086 18.433 0 16.5 0Z" fill="#064E3B" mask="url(#path-1-outside-1_462_1676)"/>
<g clip-path="url(#clip0_462_1676)">
<g filter="url(#filter0_d_462_1676)">
<path d="M16.5208 5.92948L8.45975 13.99C8.40555 14.0444 8.34114 14.0876 8.27022 14.117C8.1993 14.1465 8.12325 14.1616 8.04645 14.1616C7.96966 14.1616 7.89361 14.1465 7.82269 14.117C7.75177 14.0876 7.68736 14.0444 7.63316 13.99L4.51583 10.8697C4.46163 10.8153 4.39722 10.7721 4.3263 10.7427C4.25538 10.7132 4.17934 10.6981 4.10254 10.6981C4.02574 10.6981 3.9497 10.7132 3.87878 10.7427C3.80785 10.7721 3.74344 10.8153 3.68925 10.8697C3.63484 10.9239 3.59166 10.9883 3.5622 11.0593C3.53274 11.1302 3.51758 11.2062 3.51758 11.283C3.51758 11.3598 3.53274 11.4359 3.5622 11.5068C3.59166 11.5777 3.63484 11.6421 3.68925 11.6963L6.80775 14.8142C7.13672 15.1426 7.58253 15.327 8.04733 15.327C8.51213 15.327 8.95794 15.1426 9.28691 14.8142L17.3474 6.75548C17.4017 6.70129 17.4448 6.63692 17.4742 6.56605C17.5037 6.49518 17.5188 6.41921 17.5188 6.34248C17.5188 6.26575 17.5037 6.18978 17.4742 6.11891C17.4448 6.04804 17.4017 5.98367 17.3474 5.92948C17.2932 5.87507 17.2288 5.8319 17.1579 5.80244C17.087 5.77298 17.0109 5.75781 16.9341 5.75781C16.8573 5.75781 16.7813 5.77298 16.7104 5.80244C16.6394 5.8319 16.575 5.87507 16.5208 5.92948Z" fill="white"/>
</g>
</g>
<defs>
<filter id="filter0_d_462_1676" x="3.51758" y="5.75781" width="14.002" height="10.0692" filterUnits="userSpaceOnUse" color-interpolation-filters="sRGB">
<feFlood flood-opacity="0" result="BackgroundImageFix"/>
<feColorMatrix in="SourceAlpha" type="matrix" values="0 0 0 0 0 0 0 0 0 0 0 0 0 0 0 0 0 0 127 0" result="hardAlpha"/>
<feOffset dy="0.5"/>
<feComposite in2="hardAlpha" operator="out"/>
<feColorMatrix type="matrix" values="0 0 0 0 0.6 0 0 0 0 0.6 0 0 0 0 0.6 0 0 0 1 0"/>
<feBlend mode="normal" in2="BackgroundImageFix" result="effect1_dropShadow_462_1676"/>
<feBlend mode="normal" in="SourceGraphic" in2="effect1_dropShadow_462_1676" result="shape"/>
</filter>
<linearGradient id="paint0_linear_462_1676" x1="10.5" y1="0" x2="10.5" y2="20" gradientUnits="userSpaceOnUse">
<stop stop-color="#7BCB3F"/>
<stop offset="1" stop-color="#168326"/>
</linearGradient>
<clipPath id="clip0_462_1676">
<rect width="14" height="14" fill="white" transform="translate(3.5 3)"/>
</clipPath>
</defs>
</svg>
