<svg width="60" height="60" viewBox="0 0 60 60" fill="none" xmlns="http://www.w3.org/2000/svg">
<path d="M30 60C27.9952 60.0015 26.0144 59.5638 24.197 58.7177C22.3795 57.8716 20.7694 56.6376 19.48 55.1025C15.63 55.5425 11.6625 54.09 8.7875 51.215C7.36922 49.7976 6.27844 48.0868 5.59173 46.2029C4.90503 44.319 4.63906 42.3076 4.8125 40.31C1.785 37.9 0 34.065 0 30C0 25.935 1.785 22.1 4.9 19.48C4.4625 15.6375 5.9125 11.6625 8.7875 8.7875C10.2024 7.36647 11.9124 6.27383 13.7965 5.58692C15.6805 4.90001 17.6925 4.63564 19.69 4.8125C22.1 1.7875 25.935 0 30 0C34.065 0 37.9 1.785 40.52 4.8975C44.375 4.465 48.3375 5.91 51.2125 8.785C52.6308 10.2024 53.7216 11.9132 54.4083 13.7971C55.095 15.681 55.3609 17.6924 55.1875 19.69C58.215 22.1 60 25.935 60 30C60 34.065 58.215 37.9 55.1 40.52C55.5375 44.3625 54.0875 48.3375 51.2125 51.2125C49.7945 52.6293 48.0841 53.7192 46.2009 54.4058C44.3176 55.0924 42.3071 55.3592 40.31 55.1875C37.9 58.2125 34.065 60 30 60ZM19.6825 50.19C21.085 50.19 22.385 50.7925 23.3025 51.88C24.9725 53.8625 27.4125 55 30 55C32.5875 55 35.0275 53.8625 36.6975 51.88C37.705 50.6825 39.1725 50.0775 40.7375 50.205C42.009 50.3156 43.2892 50.1466 44.4884 49.7098C45.6876 49.273 46.7766 48.579 47.6791 47.6766C48.5815 46.7741 49.2755 45.6851 49.7123 44.4859C50.1491 43.2867 50.3181 42.0065 50.2075 40.735C50.1371 39.9758 50.2528 39.2108 50.5447 38.5064C50.8365 37.802 51.2957 37.1794 51.8825 36.6925C52.8601 35.8721 53.6462 34.8477 54.1855 33.691C54.7248 32.5344 55.0043 31.2737 55.0043 29.9975C55.0043 28.7213 54.7248 27.4606 54.1855 26.304C53.6462 25.1473 52.8601 24.1229 51.8825 23.3025C51.2961 22.8153 50.8371 22.1927 50.5453 21.4883C50.2534 20.784 50.1375 20.0192 50.2075 19.26C50.4275 16.6775 49.5075 14.1475 47.6775 12.32C45.8475 10.4925 43.3075 9.585 40.74 9.79C39.9809 9.86161 39.2158 9.74667 38.5113 9.45518C37.8068 9.1637 37.1841 8.70449 36.6975 8.1175C35.0275 6.135 32.5875 4.9975 30 4.9975C27.4125 4.9975 24.9725 6.135 23.3025 8.1175C22.8136 8.70125 22.1911 9.15836 21.4877 9.44997C20.7844 9.74159 20.021 9.85909 19.2625 9.7925C17.991 9.67939 16.7101 9.8474 15.5107 10.2846C14.3114 10.7219 13.2229 11.4176 12.3225 12.3225C11.42 13.2246 10.7258 14.3134 10.2888 15.5123C9.85171 16.7112 9.68232 17.9912 9.7925 19.2625C9.86294 20.0217 9.74722 20.7867 9.45535 21.4911C9.16348 22.1955 8.70427 22.8181 8.1175 23.305C7.13992 24.1254 6.35385 25.1498 5.81453 26.3065C5.27521 27.4631 4.99574 28.7238 4.99574 30C4.99574 31.2762 5.27521 32.5369 5.81453 33.6935C6.35385 34.8502 7.13992 35.8746 8.1175 36.695C9.315 37.7025 9.9275 39.1775 9.7925 40.7375C9.68163 42.0089 9.8507 43.2891 10.2878 44.4881C10.7249 45.6871 11.4194 46.7758 12.3225 47.6775C13.2273 48.5755 14.3161 49.2667 15.5137 49.7035C16.7114 50.1403 17.9895 50.3122 19.26 50.2075C19.4025 50.195 19.5425 50.19 19.6825 50.19ZM32.0025 37.8375L43.85 26.4175C44.3274 25.957 44.6023 25.3258 44.6143 24.6626C44.6262 23.9994 44.3742 23.3586 43.9138 22.8813C43.4533 22.4039 42.822 22.129 42.1588 22.117C41.4957 22.105 40.8549 22.357 40.3775 22.8175L28.4975 34.27C27.52 35.2475 25.9425 35.2475 24.8975 34.2075L19.2025 28.915C18.7144 28.4786 18.0745 28.2511 17.4204 28.2814C16.7663 28.3117 16.1503 28.5974 15.7046 29.0771C15.2589 29.5568 15.0193 30.1923 15.0371 30.8468C15.0549 31.5014 15.3289 32.1228 15.8 32.5775L21.43 37.8075C22.1277 38.5056 22.9563 39.0591 23.8684 39.4362C24.7805 39.8133 25.758 40.0066 26.745 40.005C28.6575 40.005 30.56 39.2825 32.005 37.84L32.0025 37.8375Z" fill="#064E3B"/>
</svg>
