<svg width="30" height="20" viewBox="0 0 30 20" fill="none" xmlns="http://www.w3.org/2000/svg">
<path d="M26.2823 20.0014C24.2498 20.0014 21.806 17.9864 19.5248 14.3764H10.466C7.81788 18.5677 4.951 20.6096 2.76413 19.8452C2.33086 19.6738 1.93697 19.4161 1.60637 19.0877C1.27577 18.7594 1.01538 18.3673 0.841004 17.9352C-0.543371 15.0314 -0.192121 9.34206 1.69913 4.09956C2.03843 3.18332 2.58682 2.35886 3.30069 1.69176C4.01457 1.02466 4.87423 0.533317 5.81134 0.256791C6.74845 -0.0197359 7.73715 -0.0738145 8.69883 0.098855C9.6605 0.271525 10.5686 0.66618 11.351 1.25144H18.6398C19.4221 0.66618 20.3303 0.271525 21.2919 0.098855C22.2536 -0.0738145 23.2423 -0.0197359 24.1794 0.256791C25.1165 0.533317 25.9762 1.02466 26.6901 1.69176C27.4039 2.35886 27.9523 3.18332 28.2916 4.09956C30.1816 9.34206 30.5341 15.0314 29.1498 17.9352C28.9754 18.3673 28.715 18.7594 28.3844 19.0877C28.0538 19.4161 27.6599 19.6738 27.2266 19.8452C26.9229 19.9502 26.6036 20.003 26.2823 20.0014Z" fill="#34495E"/>
<path d="M27.9914 17.9608C27.6685 18.0722 27.3292 18.1281 26.9877 18.1265C24.8283 18.1265 22.232 15.9858 19.8077 12.1483H10.1827C7.37016 16.6015 4.32266 18.7733 1.99891 17.9608C1.34213 17.7189 0.779951 17.2732 0.394531 16.689C0.504137 17.1186 0.653532 17.5371 0.840781 17.939C1.01558 18.3704 1.27616 18.7618 1.60674 19.0894C1.93731 19.4171 2.33099 19.6742 2.76391 19.8452C4.95141 20.6096 7.81766 18.5677 10.4658 14.3765H19.5245C21.8058 17.9877 24.2495 20.0015 26.282 20.0015C26.6035 20.0027 26.9228 19.9494 27.2264 19.844C27.6597 19.6726 28.0536 19.4149 28.3842 19.0865C28.7148 18.7582 28.9752 18.366 29.1495 17.934C29.3368 17.5321 29.4862 17.1136 29.5958 16.684C29.2112 17.2701 28.6489 17.7176 27.9914 17.9608ZM16.2452 10.6265H13.7452C13.5794 10.6265 13.4204 10.5606 13.3032 10.4434C13.186 10.3262 13.1202 10.1672 13.1202 10.0015C13.1202 9.8357 13.186 9.67673 13.3032 9.55952C13.4204 9.44231 13.5794 9.37646 13.7452 9.37646H16.2452C16.4109 9.37646 16.5699 9.44231 16.6871 9.55952C16.8043 9.67673 16.8702 9.8357 16.8702 10.0015C16.8702 10.1672 16.8043 10.3262 16.6871 10.4434C16.5699 10.5606 16.4109 10.6265 16.2452 10.6265Z" fill="#2C3E50"/>
<path d="M22.4961 11.564C25.0849 11.564 27.1836 9.4653 27.1836 6.87646C27.1836 4.28763 25.0849 2.18896 22.4961 2.18896C19.9073 2.18896 17.8086 4.28763 17.8086 6.87646C17.8086 9.4653 19.9073 11.564 22.4961 11.564Z" fill="#2C3E50"/>
<path d="M7.49609 11.2515C9.91234 11.2515 11.8711 9.29271 11.8711 6.87647C11.8711 4.46022 9.91234 2.50146 7.49609 2.50146C5.07985 2.50146 3.12109 4.46022 3.12109 6.87647C3.12109 9.29271 5.07985 11.2515 7.49609 11.2515Z" fill="#2C3E50"/>
<path d="M22.4961 5.62646C23.0139 5.62646 23.4336 5.20673 23.4336 4.68896C23.4336 4.1712 23.0139 3.75146 22.4961 3.75146C21.9783 3.75146 21.5586 4.1712 21.5586 4.68896C21.5586 5.20673 21.9783 5.62646 22.4961 5.62646Z" fill="#F1C40F"/>
<path d="M22.4961 10.0015C23.0139 10.0015 23.4336 9.58173 23.4336 9.06396C23.4336 8.5462 23.0139 8.12646 22.4961 8.12646C21.9783 8.12646 21.5586 8.5462 21.5586 9.06396C21.5586 9.58173 21.9783 10.0015 22.4961 10.0015Z" fill="#3498DB"/>
<path d="M24.6836 7.81396C25.2014 7.81396 25.6211 7.39423 25.6211 6.87646C25.6211 6.3587 25.2014 5.93896 24.6836 5.93896C24.1658 5.93896 23.7461 6.3587 23.7461 6.87646C23.7461 7.39423 24.1658 7.81396 24.6836 7.81396Z" fill="#2ECC71"/>
<path d="M20.3086 7.81396C20.8264 7.81396 21.2461 7.39423 21.2461 6.87646C21.2461 6.3587 20.8264 5.93896 20.3086 5.93896C19.7908 5.93896 19.3711 6.3587 19.3711 6.87646C19.3711 7.39423 19.7908 7.81396 20.3086 7.81396Z" fill="#E74C3C"/>
<path d="M9.68359 5.93897H8.43359V4.68896C8.43359 4.44032 8.33482 4.20187 8.15901 4.02605C7.98319 3.85024 7.74473 3.75146 7.49609 3.75146C7.24745 3.75146 7.009 3.85024 6.83318 4.02605C6.65737 4.20187 6.55859 4.44032 6.55859 4.68896V5.93897H5.30859C5.05995 5.93897 4.8215 6.03774 4.64568 6.21355C4.46987 6.38937 4.37109 6.62782 4.37109 6.87647C4.37109 7.12511 4.46987 7.36356 4.64568 7.53938C4.8215 7.71519 5.05995 7.81397 5.30859 7.81397H6.55859V9.06397C6.55859 9.31261 6.65737 9.55106 6.83318 9.72688C7.009 9.90269 7.24745 10.0015 7.49609 10.0015C7.74473 10.0015 7.98319 9.90269 8.15901 9.72688C8.33482 9.55106 8.43359 9.31261 8.43359 9.06397V7.81397H9.68359C9.93223 7.81397 10.1707 7.71519 10.3465 7.53938C10.5223 7.36356 10.6211 7.12511 10.6211 6.87647C10.6211 6.62782 10.5223 6.38937 10.3465 6.21355C10.1707 6.03774 9.93223 5.93897 9.68359 5.93897Z" fill="#ECF0F1"/>
</svg>
