<svg width="30" height="30" viewBox="0 0 30 30" fill="none" xmlns="http://www.w3.org/2000/svg">
<path d="M13.0949 29.9977C20.3269 29.9977 26.1897 24.1349 26.1897 16.9028C26.1897 9.67075 20.3269 3.80798 13.0949 3.80798C5.86276 3.80798 0 9.67075 0 16.9028C0 24.1349 5.86276 29.9977 13.0949 29.9977Z" fill="#FD646F"/>
<path d="M26.1902 16.9029C26.1902 24.1348 20.3273 29.9977 13.0954 29.9977C9.17118 29.9977 5.64951 28.2712 3.25 25.5358C5.55494 27.5588 8.57585 28.7852 11.8829 28.7852C19.1148 28.7852 24.9778 22.9223 24.9778 15.6904C24.9778 12.3833 23.7513 9.36243 21.7283 7.0575C24.4637 9.45701 26.1902 12.9787 26.1902 16.9029Z" fill="#FC4755"/>
<path d="M13.0947 26.7846C18.5522 26.7846 22.9764 22.3604 22.9764 16.9029C22.9764 11.4453 18.5522 7.02112 13.0947 7.02112C7.63711 7.02112 3.21289 11.4453 3.21289 16.9029C3.21289 22.3604 7.63711 26.7846 13.0947 26.7846Z" fill="#F5F5F5"/>
<path d="M22.9768 16.9028C22.9768 22.3602 18.5525 26.7846 13.0951 26.7846C10.0578 26.7846 7.34062 25.4139 5.52734 23.2581C7.24544 24.7021 9.46247 25.5721 11.8826 25.5721C17.34 25.5721 21.7644 21.1477 21.7644 15.6903C21.7644 13.2702 20.8944 11.0532 19.4503 9.33508C21.6061 11.1484 22.9768 13.8655 22.9768 16.9028Z" fill="#E6E6E6"/>
<path d="M13.0945 23.5716C16.7775 23.5716 19.7631 20.5859 19.7631 16.9029C19.7631 13.2199 16.7775 10.2343 13.0945 10.2343C9.41145 10.2343 6.42578 13.2199 6.42578 16.9029C6.42578 20.5859 9.41145 23.5716 13.0945 23.5716Z" fill="#FD646F"/>
<path d="M19.764 16.9029C19.764 20.5858 16.7782 23.5716 13.0953 23.5716C10.945 23.5716 9.03165 22.5537 7.8125 20.9732C8.93829 21.8426 10.3502 22.3591 11.8828 22.3591C15.5657 22.3591 18.5515 19.3734 18.5515 15.6904C18.5515 14.1579 18.035 12.7459 17.1656 11.6201C18.7461 12.8393 19.764 14.7526 19.764 16.9029Z" fill="#FC4755"/>
<path d="M13.0942 20.2979C14.9692 20.2979 16.4891 18.7779 16.4891 16.9029C16.4891 15.0279 14.9692 13.5079 13.0942 13.5079C11.2192 13.5079 9.69922 15.0279 9.69922 16.9029C9.69922 18.7779 11.2192 20.2979 13.0942 20.2979Z" fill="#F5F5F5"/>
<path d="M25.484 21.152C25.2279 21.8991 24.9042 22.6212 24.5171 23.3096L21.5938 21.9462C21.9945 21.2732 22.317 20.5482 22.5492 19.7837L25.484 21.152Z" fill="#FC4755"/>
<path d="M22.5504 19.7837C22.3205 20.5405 21.9997 21.2667 21.595 21.9462L18.6602 20.5779C19.0996 19.9158 19.4159 19.1797 19.5938 18.4052L22.5504 19.7837Z" fill="#E6E6E6"/>
<path d="M19.593 18.4051C19.4151 19.1796 19.0988 19.9157 18.6594 20.5779L15.627 19.1641C16.152 18.5761 16.4757 17.8043 16.489 16.9574L19.593 18.4051Z" fill="#FC4755"/>
<path d="M16.4885 16.9575C16.4752 17.8044 16.1515 18.5762 15.6265 19.1642L12.7862 17.8396C12.2309 17.5813 11.9714 16.946 12.1697 16.3797C12.183 16.3428 12.1975 16.3058 12.2145 16.2688C12.3527 15.9729 12.5971 15.7614 12.882 15.6577C13.1657 15.5546 13.4901 15.5589 13.7853 15.6971L16.4885 16.9575Z" fill="#E6E6E6"/>
<path d="M29.8988 5.46681C29.9959 5.483 30.0342 5.60212 29.9648 5.67196L28.6821 6.96047L27.8952 7.75101L25.745 9.91057C25.6769 9.97897 25.5934 10.0301 25.5016 10.0598C25.4097 10.0894 25.3121 10.0967 25.2169 10.081L22.0098 9.55277L24.4117 7.17023L25.2077 6.3809L26.6718 4.92834L29.8988 5.46681Z" fill="#50758D"/>
<path d="M28.6825 6.96043L27.8956 7.75097L24.4121 7.17019L25.2081 6.38086L28.6825 6.96043Z" fill="#2B597F"/>
<path d="M25.1363 3.52855L23.6795 4.95382L22.8872 5.72921L20.4937 8.07113L19.9592 4.823C19.9436 4.72804 19.9508 4.63072 19.9802 4.5391C20.0097 4.44748 20.0605 4.36419 20.1285 4.29611L22.2876 2.13479L23.0775 1.34365L24.3845 0.035677C24.4545 -0.0344047 24.5744 0.00451611 24.59 0.102303L25.1363 3.52855Z" fill="#50758D"/>
<path d="M23.679 4.95381L22.8867 5.72919L22.2871 2.13478L23.077 1.34363L23.679 4.95381Z" fill="#2B597F"/>
<path d="M27.9071 3.33275C27.9071 3.63465 27.7919 3.93778 27.5609 4.16815L14.1211 17.608C13.6882 18.0414 13.0026 18.0681 12.5382 17.688C12.5079 17.6631 12.4782 17.6364 12.4497 17.608C12.3397 17.4983 12.2525 17.368 12.1931 17.2245C12.1337 17.0811 12.1032 16.9272 12.1035 16.7719C12.1035 16.47 12.2187 16.1669 12.4497 15.9365L25.8895 2.49674C26.3508 2.03478 27.0995 2.03478 27.5609 2.49674C27.5894 2.52523 27.6161 2.55494 27.6409 2.58525C27.8186 2.80228 27.9071 3.06721 27.9071 3.33275Z" fill="#918291"/>
<path d="M27.9079 3.3327C27.9079 3.63461 27.7927 3.93773 27.5618 4.16811L14.122 17.6079C13.6891 18.0414 13.0034 18.068 12.5391 17.6879L27.6418 2.58521C27.8194 2.80224 27.9079 3.06717 27.9079 3.3327Z" fill="#7A6E79"/>
</svg>
