<svg width="24" height="24" viewBox="0 0 24 24" fill="none" xmlns="http://www.w3.org/2000/svg">
<g clip-path="url(#clip0_462_1860)">
<path d="M23.2715 9.419C22.3688 7.94073 21.23 6.62026 19.9005 5.51L22.7005 2.71C22.8827 2.5214 22.9835 2.2688 22.9812 2.0066C22.9789 1.7444 22.8738 1.49359 22.6884 1.30818C22.503 1.12277 22.2521 1.01761 21.9899 1.01533C21.7277 1.01305 21.4751 1.11384 21.2865 1.296L18.2415 4.345C16.3539 3.22382 14.196 2.63947 12.0005 2.655C5.80954 2.655 2.28154 6.893 0.72954 9.419C0.250068 10.1945 -0.00390625 11.0882 -0.00390625 12C-0.00390625 12.9118 0.250068 13.8055 0.72954 14.581C1.6323 16.0593 2.77103 17.3797 4.10054 18.49L1.30054 21.29C1.20503 21.3822 1.12885 21.4926 1.07644 21.6146C1.02403 21.7366 0.996443 21.8678 0.995289 22.0006C0.994135 22.1334 1.01944 22.2651 1.06972 22.388C1.12 22.5109 1.19425 22.6225 1.28814 22.7164C1.38204 22.8103 1.49369 22.8845 1.61659 22.9348C1.73948 22.9851 1.87116 23.0104 2.00394 23.0093C2.13672 23.0081 2.26794 22.9805 2.38994 22.9281C2.51195 22.8757 2.62229 22.7995 2.71454 22.704L5.76654 19.652C7.65181 20.773 9.80721 21.3584 12.0005 21.345C18.1915 21.345 21.7195 17.107 23.2715 14.581C23.751 13.8055 24.005 12.9118 24.005 12C24.005 11.0882 23.751 10.1945 23.2715 9.419ZM2.43354 13.534C2.14867 13.073 1.99779 12.5419 1.99779 12C1.99779 11.4581 2.14867 10.927 2.43354 10.466C3.76754 8.3 6.78254 4.655 12.0005 4.655C13.6608 4.6457 15.2978 5.04584 16.7665 5.82L14.7535 7.833C13.7935 7.1956 12.6424 6.91 11.4958 7.02465C10.3491 7.1393 9.27741 7.64714 8.46254 8.462C7.64768 9.27687 7.13983 10.3486 7.02519 11.4952C6.91054 12.6419 7.19614 13.7929 7.83354 14.753L5.52354 17.063C4.29864 16.0727 3.25338 14.879 2.43354 13.534ZM15.0005 12C15.0005 12.7957 14.6845 13.5587 14.1219 14.1213C13.5593 14.6839 12.7962 15 12.0005 15C11.5551 14.9983 11.1157 14.8957 10.7155 14.7L14.7005 10.715C14.8963 11.1152 14.9988 11.5545 15.0005 12ZM9.00054 12C9.00054 11.2044 9.31661 10.4413 9.87922 9.87868C10.4418 9.31607 11.2049 9 12.0005 9C12.446 9.00173 12.8853 9.10429 13.2855 9.3L9.30054 13.285C9.10483 12.8848 9.00226 12.4455 9.00054 12ZM21.5675 13.534C20.2335 15.7 17.2185 19.345 12.0005 19.345C10.3403 19.3543 8.7033 18.9542 7.23454 18.18L9.24754 16.167C10.2076 16.8044 11.3586 17.09 12.5053 16.9754C13.652 16.8607 14.7237 16.3529 15.5385 15.538C16.3534 14.7231 16.8612 13.6514 16.9759 12.5048C17.0905 11.3581 16.8049 10.2071 16.1675 9.247L18.4775 6.937C19.7024 7.92728 20.7477 9.12105 21.5675 10.466C21.8524 10.927 22.0033 11.4581 22.0033 12C22.0033 12.5419 21.8524 13.073 21.5675 13.534Z" fill="#8B7D52"/>
</g>
<defs>
<clipPath id="clip0_462_1860">
<rect width="24" height="24" fill="white"/>
</clipPath>
</defs>
</svg>
