<svg width="24" height="24" viewBox="0 0 24 24" fill="none" xmlns="http://www.w3.org/2000/svg">
<path d="M22 5.72866V2.00466C22 1.73944 21.8946 1.48509 21.7071 1.29755C21.5196 1.11002 21.2652 1.00466 21 1.00466C20.7348 1.00466 20.4804 1.11002 20.2929 1.29755C20.1054 1.48509 20 1.73944 20 2.00466V4.37066L14.797 0.859661C13.9718 0.299485 12.9974 0 12 0C11.0026 0 10.0282 0.299485 9.203 0.859661L2.203 5.58366C1.52429 6.04118 0.968409 6.65848 0.584264 7.38126C0.20012 8.10404 -0.000518241 8.91014 1.00529e-06 9.72866V19.0047C1.00529e-06 21.7617 2.243 24.0047 5 24.0047H8C8.26522 24.0047 8.51957 23.8993 8.70711 23.7118C8.89464 23.5242 9 23.2699 9 23.0047V15.0047C9 14.4537 9.448 14.0047 10 14.0047H14C14.552 14.0047 15 14.4537 15 15.0047V23.0047C15 23.2699 15.1054 23.5242 15.2929 23.7118C15.4804 23.8993 15.7348 24.0047 16 24.0047H19C21.757 24.0047 24 21.7617 24 19.0047V9.72866C24.0004 8.95237 23.8198 8.18667 23.4727 7.49233C23.1255 6.79799 22.6213 6.19413 22 5.72866ZM22 19.0047C22 20.6587 20.654 22.0047 19 22.0047H17V15.0047C17 13.3507 15.654 12.0047 14 12.0047H10C8.346 12.0047 7 13.3507 7 15.0047V22.0047H5C3.346 22.0047 2 20.6587 2 19.0047V9.72866C2 8.72966 2.494 7.79966 3.322 7.24166L10.322 2.51766C10.8168 2.18147 11.4013 2.00171 11.9995 2.00171C12.5977 2.00171 13.1822 2.18147 13.677 2.51766L20.677 7.24166C21.0844 7.51602 21.4181 7.88637 21.6486 8.32006C21.8791 8.75376 21.9995 9.2375 21.999 9.72866L22 19.0047Z" fill="#606060"/>
</svg>
