<svg width="20" height="24" viewBox="0 0 20 24" fill="none" xmlns="http://www.w3.org/2000/svg">
<path d="M17.494 7.96591L7.954 0.965912C7.20889 0.420297 6.32722 0.0917064 5.40676 0.0165754C4.48631 -0.0585557 3.56302 0.122709 2.7393 0.540269C1.91557 0.95783 1.22358 1.59537 0.740058 2.3822C0.25654 3.16902 0.000386015 4.07439 0 4.99791V18.9979C0.000164771 19.9218 0.256333 20.8277 0.740075 21.6149C1.22382 22.402 1.91621 23.0398 2.74042 23.4573C3.56463 23.8749 4.48841 24.0559 5.40925 23.9802C6.33008 23.9046 7.21196 23.5753 7.957 23.0289L17.497 16.0289C18.1303 15.5645 18.6452 14.9575 19.0002 14.257C19.3552 13.5565 19.5401 12.7822 19.5401 11.9969C19.5401 11.2116 19.3552 10.4374 19.0002 9.73685C18.6452 9.03635 18.1303 8.42932 17.497 7.96491L17.494 7.96591ZM16.31 14.4159L6.77 21.4159C6.32302 21.7425 5.79437 21.9391 5.24257 21.9839C4.69078 22.0286 4.13736 21.9199 3.64357 21.6695C3.14978 21.4192 2.73488 21.0372 2.4448 20.5656C2.15472 20.0941 2.00078 19.5515 2 18.9979V4.99791C1.99445 4.44326 2.14549 3.89829 2.43578 3.42564C2.72606 2.95298 3.1438 2.5718 3.641 2.32591C4.06389 2.1108 4.53154 1.99843 5.006 1.99791C5.64189 2.00034 6.26022 2.2068 6.77 2.58691L16.31 9.58691C16.6895 9.86561 16.9981 10.2297 17.2107 10.6498C17.4234 11.0698 17.5343 11.5341 17.5343 12.0049C17.5343 12.4758 17.4234 12.94 17.2107 13.36C16.9981 13.7801 16.6895 14.1442 16.31 14.4229V14.4159Z" fill="#110600"/>
</svg>
