<svg width="60" height="60" viewBox="0 0 60 60" fill="none" xmlns="http://www.w3.org/2000/svg">
<path d="M47.5 52.5H12.5C5.6075 52.5 1.69001e-07 46.8925 1.69001e-07 40V37.695C-0.000126922 37.3493 0.0714275 37.0074 0.210144 36.6908C0.348861 36.3742 0.551725 36.0898 0.805924 35.8556C1.06012 35.6213 1.36013 35.4424 1.687 35.33C2.01387 35.2176 2.3605 35.1742 2.705 35.2025C5.47 35.15 7.705 32.8825 7.705 30.1025C7.705 27.3225 5.47 25.0525 2.705 25C2.3607 25.028 2.01435 24.9843 1.68777 24.8717C1.3612 24.7592 1.0615 24.5801 0.807577 24.3459C0.553654 24.1117 0.351019 23.8275 0.212454 23.5111C0.0738892 23.1946 0.00240141 22.8529 0.00250017 22.5075V19.9975C0.0058094 16.684 1.32357 13.5071 3.66659 11.1641C6.00961 8.82107 9.18647 7.50331 12.5 7.5H47.5C54.3925 7.5 60 13.1075 60 20V22.5C60 23.163 59.7366 23.7989 59.2678 24.2678C58.7989 24.7366 58.163 25 57.5 25C54.7425 25 52.5 27.2425 52.5 30C52.5 32.7575 54.7425 35 57.5 35C58.163 35 58.7989 35.2634 59.2678 35.7322C59.7366 36.2011 60 36.837 60 37.5V40C60 46.8925 54.3925 52.5 47.5 52.5ZM5 39.9175V40C5 44.135 8.365 47.5 12.5 47.5H47.5C51.635 47.5 55 44.135 55 40V39.685C50.6925 38.5725 47.5 34.6525 47.5 30C47.5 25.3475 50.6925 21.43 55 20.315V20C55 15.865 51.635 12.5 47.5 12.5H12.5C8.365 12.5 5 15.865 5 20V20.2875C9.4175 21.3675 12.705 25.3575 12.705 30.1025C12.705 34.8475 9.4175 38.8375 5 39.9175Z" fill="#064E3B"/>
</svg>
