<svg width="24" height="24" viewBox="0 0 24 24" fill="none" xmlns="http://www.w3.org/2000/svg">
<g clip-path="url(#clip0_462_2021)">
<path d="M19.95 5.536L16.465 2.051C15.8165 1.39896 15.045 0.882039 14.1954 0.530154C13.3457 0.17827 12.4347 -0.0015836 11.515 0.00100409H7C5.67442 0.00206305 4.40341 0.52905 3.46599 1.46629C2.52857 2.40352 2.00132 3.67442 2 5V19C2 21.757 4.243 24 7 24H17C19.757 24 22 21.757 22 19V10.485C22 8.615 21.272 6.859 19.95 5.536ZM18.536 6.95C18.854 7.268 19.123 7.621 19.341 8H15C14.449 8 14 7.551 14 7V2.659C14.379 2.877 14.733 3.146 15.05 3.464L18.535 6.949L18.536 6.95ZM20 19C20 20.654 18.654 22 17 22H7C5.346 22 4 20.654 4 19V5C4 3.346 5.346 2 7 2H11.515C11.678 2 11.84 2.008 12 2.023V7C12 8.654 13.346 10 15 10H19.977C19.992 10.16 20 10.322 20 10.485V19ZM15.707 14.481C15.8945 14.6685 15.9998 14.9228 15.9998 15.188C15.9998 15.4532 15.8945 15.7075 15.707 15.895C15.5195 16.0825 15.2652 16.1879 15 16.1879C14.7348 16.1879 14.4805 16.0825 14.293 15.895L13 14.602V19C13 19.2652 12.8946 19.5196 12.7071 19.7071C12.5196 19.8946 12.2652 20 12 20C11.7348 20 11.4804 19.8946 11.2929 19.7071C11.1054 19.5196 11 19.2652 11 19V14.602L9.707 15.895C9.51949 16.0825 9.26518 16.1879 9 16.1879C8.73482 16.1879 8.48051 16.0825 8.293 15.895C8.10549 15.7075 8.00015 15.4532 8.00015 15.188C8.00015 14.9228 8.10549 14.6685 8.293 14.481L9.907 12.867C10.4628 12.3128 11.2156 12.0016 12.0005 12.0016C12.7854 12.0016 13.5382 12.3128 14.094 12.867L15.708 14.481H15.707Z" fill="#1A1A1A"/>
</g>
<defs>
<clipPath id="clip0_462_2021">
<rect width="24" height="24" fill="white"/>
</clipPath>
</defs>
</svg>
