<svg width="24" height="24" viewBox="0 0 24 24" fill="none" xmlns="http://www.w3.org/2000/svg">
<path d="M21 6H5C4.57828 5.99923 4.16143 5.9099 3.77643 5.73781C3.39142 5.56572 3.04684 5.3147 2.765 5.001C3.04598 4.6861 3.39034 4.43413 3.77551 4.26163C4.16068 4.08912 4.57796 3.99996 5 4H23C23.2652 4 23.5196 3.89464 23.7071 3.70711C23.8946 3.51957 24 3.26522 24 3C24 2.73478 23.8946 2.48043 23.7071 2.29289C23.5196 2.10536 23.2652 2 23 2H5C3.67392 2 2.40215 2.52678 1.46447 3.46447C0.526784 4.40215 0 5.67392 0 7L0 17C0 18.3261 0.526784 19.5979 1.46447 20.5355C2.40215 21.4732 3.67392 22 5 22H21C21.7956 22 22.5587 21.6839 23.1213 21.1213C23.6839 20.5587 24 19.7956 24 19V9C24 8.20435 23.6839 7.44129 23.1213 6.87868C22.5587 6.31607 21.7956 6 21 6ZM22 19C22 19.551 21.552 20 21 20H5C3.346 20 2 18.654 2 17V6.998C2.86564 7.64705 3.91806 7.99856 5 8H21C21.552 8 22 8.449 22 9V19ZM20 14C20 14.2652 19.8946 14.5196 19.7071 14.7071C19.5196 14.8946 19.2652 15 19 15C18.7348 15 18.4804 14.8946 18.2929 14.7071C18.1054 14.5196 18 14.2652 18 14C18 13.7348 18.1054 13.4804 18.2929 13.2929C18.4804 13.1054 18.7348 13 19 13C19.2652 13 19.5196 13.1054 19.7071 13.2929C19.8946 13.4804 20 13.7348 20 14Z" fill="#606060"/>
</svg>
